# xmcd CD database file
#
# Track frame offsets:
#	150
#	12789
#	25092
#	38390
#	50780
#	64153
#	75840
#	88050
#	100713
#	114104
#
# Disc length: 1696 seconds
#
# Revision: 1
# Processed by: cddbd v1.5.1PL2 Copyright (c) Steve Scherf et al.
# Submitted via: jetAudio 5
#
DISCID=64069e0a
DTITLE=Delmore Brothers - Delmore Brothers
DYEAR=1900
DGENRE=
TTITLE0=Blues Stay Away From Me
TTITLE1=Freight Train Boogie
TTITLE2=Pan American Boogie
TTITLE3=Prisoner's Farewell
TTITLE4=Midnight Special
TTITLE5=Brown's Ferry Blues
TTITLE6=You Can't Do Wrong And Get By
TTITLE7=Dis Train
TTITLE8=Red River Valley
TTITLE9=Will The Circle Be Unbroken
EXTD=King Records KSCD-3831
EXTT0=
EXTT1=
EXTT2=
EXTT3=
EXTT4=
EXTT5=
EXTT6=
EXTT7=
EXTT8=
EXTT9=
PLAYORDER=
